# xmcd CD database file
#
# Track frame offsets:
#	150
#	42309
#	86319
#	127021
#	155559
#	178422
#	209470
#	234096
#
# Disc length: 3763 seconds
#
# Revision: 3
# Processed by: cddbd v1.5.2PL0 Copyright (c) Steve Scherf et al.
# Submitted via: CDex 1.92
#
DISCID=670eb108
DTITLE=My Dying Bride - Feel The Misery
DYEAR=2015
DGENRE=Doom Metal
TTITLE0=And My Father Left Forever
TTITLE1=To Shiver In Empty Halls
TTITLE2=A Cold New Course
TTITLE3=Feel The Misery
TTITLE4=A Thorn Of Wisdom
TTITLE5=I Celebrate Your Skin
TTITLE6=I Almost Loved You
TTITLE7=Within A Sleeping Forest
EXTD=YEAR: 2015
EXTT0=
EXTT1=
EXTT2=
EXTT3=
EXTT4=
EXTT5=
EXTT6=
EXTT7=
PLAYORDER=
